<svg width="49" height="40" viewBox="0 0 49 40" fill="none" xmlns="http://www.w3.org/2000/svg">
<path fill-rule="evenodd" clip-rule="evenodd" d="M37.7226 0.195406C37.4898 0.32059 36.2725 1.0111 35.0174 1.72977C33.7623 2.44854 32.6992 3.03656 32.6551 3.03656C32.611 3.03656 31.4863 2.64443 30.1557 2.16509C28.8252 1.68576 27.4707 1.2421 27.1456 1.17909C26.3699 1.02889 25.359 1.11182 24.5909 1.38869C23.8265 1.66417 15.9991 6.109 15.4591 6.57425C14.9628 7.00179 14.5135 7.8261 14.3821 8.54987C14.0242 10.5213 15.5283 12.4153 17.5663 12.5594C18.7694 12.6444 18.4262 12.8051 24.7827 9.18246C26.6652 8.10964 28.3697 7.17923 28.5704 7.11493C29.1578 6.92664 30.0772 7.03663 30.7374 7.3741C31.0468 7.53227 34.9713 9.76178 39.4584 12.3286C47.2632 16.7931 47.6262 16.9895 47.8332 16.8587C48.1192 16.6781 48.4139 16.0934 48.4139 15.7066C48.4139 15.3401 48.5245 15.5343 43.3952 6.89662C40.822 2.56335 39.463 0.361732 39.2823 0.233489C38.8643 -0.0631172 38.2317 -0.0785914 37.7226 0.195406ZM9.35324 2.11589C9.19664 2.16092 8.95817 2.31344 8.82342 2.45503C8.62565 2.66268 1.7908 15.1288 0.694952 17.2804C0.350893 17.956 0.326887 18.3426 0.601083 18.7872C0.830362 19.1588 0.964741 19.2755 1.46906 19.5405C1.76407 19.6956 1.84838 19.7084 1.91233 19.608C1.95575 19.5397 2.31922 18.9216 2.7201 18.2344C3.82758 16.336 4.91246 15.3816 6.54357 14.871C7.07387 14.7049 7.41614 14.6661 8.32529 14.6689C9.30392 14.6719 9.54623 14.7053 10.1846 14.9255C10.9965 15.2055 11.8038 15.6733 12.3212 16.1639L12.6599 16.485L13.2121 16.3222C13.8859 16.1236 15.3274 16.0999 16.0617 16.2754C16.3453 16.3432 16.9361 16.5666 17.3745 16.7717C18.8331 17.4545 20.1308 19.0228 20.4817 20.527C20.5895 20.9888 20.6154 21.0195 20.9777 21.1148C21.7063 21.3065 22.8146 21.9527 23.4111 22.5335C24.1302 23.2336 24.6076 23.9993 24.9322 24.9726L25.1822 25.7224L25.8552 25.965C27.2692 26.4745 28.4401 27.5123 29.1018 28.8425C29.642 29.9287 29.7842 30.5896 29.7295 31.7602C29.6675 33.0865 29.4632 33.63 28.2427 35.7159C27.5328 36.9292 27.2599 37.4742 27.3402 37.5188C27.4035 37.5538 28.3346 38.0834 29.4093 38.6954C31.4994 39.8857 31.969 40.0622 32.8399 39.9841C33.6562 39.911 34.2733 39.6027 34.8628 38.9735C35.9996 37.7602 36.0151 36.0462 34.9009 34.7699C34.6304 34.4601 34.6177 34.427 34.8166 34.5512C35.4056 34.9188 36.5971 35.5703 37.0131 35.7521C38.0491 36.205 39.4869 35.9281 40.3314 35.1133C41.0469 34.4227 41.2403 33.9358 41.2393 32.8269C41.2384 31.8031 41.1143 31.4526 40.5128 30.7753L40.2086 30.4329L41.1464 30.9349C42.084 31.437 42.0842 31.437 42.9281 31.4366C43.9267 31.436 44.4045 31.2593 45.0863 30.6382C46.3828 29.4573 46.4465 27.456 45.2271 26.2143C45.028 26.0117 44.5348 25.6534 44.131 25.4184C43.4565 25.0256 43.4273 24.9968 43.772 25.0635C45.2734 25.3541 46.7844 24.604 47.4115 23.2567C47.7268 22.5792 47.7029 21.4176 47.3594 20.7265C47.2179 20.4417 46.9316 20.0419 46.7234 19.8382C46.4929 19.6126 45.0711 18.7405 43.0891 17.6089C41.2985 16.5866 37.5239 14.4314 34.7011 12.8196C31.8783 11.2077 29.5124 9.8676 29.4437 9.84156C29.3748 9.81543 27.4622 10.8541 25.1933 12.1496C20.3439 14.9187 20.2858 14.9489 19.3667 15.1811C16.9921 15.7813 14.2995 14.8581 12.8294 12.9398C11.9526 11.7957 11.5305 10.565 11.5305 9.15216C11.5305 7.5142 12.1308 6.01866 13.2599 4.84428L13.9093 4.16869L12.187 3.1889C9.99166 1.94002 9.98031 1.93566 9.35324 2.11589ZM7.37104 17.5268C6.84656 17.6963 6.42673 17.963 6.01356 18.3892C5.69079 18.7222 2.37436 24.2805 1.96081 25.1815C1.66664 25.8225 1.6898 26.9189 2.01201 27.6053C2.32419 28.2703 2.89968 28.8399 3.5758 29.1531C4.01851 29.3582 4.23625 29.3985 4.90252 29.3985C5.84308 29.3985 6.49256 29.1487 7.09768 28.5541C7.32846 28.3274 7.43677 28.2626 7.39007 28.3792C7.34919 28.4812 7.2962 28.8981 7.2722 29.3058C7.23675 29.9093 7.26582 30.1443 7.42843 30.5704C7.70675 31.2993 8.2512 31.8762 9.00843 32.2444C9.56161 32.5134 9.72253 32.5486 10.3866 32.5457C11.2859 32.5418 11.9839 32.2696 12.5639 31.6965L12.93 31.3347L12.8079 31.7999C12.647 32.4128 12.6538 32.826 12.8349 33.4284C13.5151 35.6919 16.2506 36.4438 18.0291 34.8561L18.3939 34.5304L18.2955 34.8827C18.1324 35.4662 18.245 36.5561 18.5234 37.0893C18.8151 37.6479 19.4262 38.2448 20.0002 38.5319C20.6305 38.847 21.7469 38.887 22.4631 38.6201C23.4127 38.2662 23.7721 37.8312 25.3359 35.1435C26.1164 33.8018 26.7877 32.5373 26.8508 32.2897C27.0197 31.6266 26.9221 30.6976 26.622 30.1135C25.655 28.231 23.2093 27.8043 21.6516 29.2462L21.2868 29.5838L21.6343 28.9815C22.1074 28.1615 22.2501 27.8265 22.3726 27.2498C22.567 26.3339 22.1744 25.2001 21.427 24.5194C20.1902 23.3929 18.4044 23.3643 17.1401 24.4505L16.7734 24.7655L17.08 24.2558C17.7368 23.1636 17.7965 22.9783 17.7965 22.032C17.7965 21.2853 17.7616 21.0817 17.5669 20.6908C16.902 19.3555 15.4099 18.6565 13.9894 19.0151C12.9636 19.2741 12.3858 19.7538 11.7255 20.8949C11.5123 21.2635 11.3258 21.5529 11.3111 21.5384C11.2963 21.5238 11.3302 21.3475 11.3864 21.1465C11.6105 20.3444 11.2781 19.1236 10.64 18.4054C10.4795 18.2247 10.0838 17.9378 9.76107 17.7677C9.27316 17.5108 9.05485 17.4536 8.46829 17.4294C8.04537 17.412 7.60575 17.451 7.37104 17.5268Z" fill="#8D9CB1"/>
</svg>
