<svg width="50" height="42" viewBox="0 0 50 42" fill="none" xmlns="http://www.w3.org/2000/svg">
<path fill-rule="evenodd" clip-rule="evenodd" d="M12.8637 4.197C6.46668 6.52348 1.11858 8.51295 0.979028 8.61818C0.168761 9.22906 0.242945 10.5109 1.11867 11.0316C1.27126 11.1225 6.63642 13.1129 13.0412 15.4549C22.8953 19.0583 24.7452 19.7059 25.0696 19.6665C25.4958 19.6146 48.2933 11.2973 48.7331 11.0332C49.2094 10.7473 49.4141 10.3711 49.4141 9.78176C49.4141 9.19188 49.2097 8.81691 48.7312 8.52843C48.5775 8.43582 43.2986 6.48738 37.0003 4.19848C28.471 1.09889 25.4144 0.0281108 25.0217 0.00207371C24.5323 -0.0302754 23.6613 0.270236 12.8637 4.197ZM44.502 15.7741L43.1363 16.2805V22.1708V28.061L42.5697 28.644C42.1331 29.0933 41.9683 29.3479 41.8509 29.7547C41.5079 30.943 41.778 32.0341 42.6215 32.8681L43.1298 33.3707L43.157 37.2258C43.1834 40.9686 43.19 41.0892 43.3859 41.3594C44.0049 42.2135 45.1431 42.2135 45.7619 41.3594C45.9579 41.089 45.9644 40.9698 45.9908 37.1582L46.0178 33.2352L46.2678 33.0975C46.6485 32.8879 47.1482 32.1492 47.3194 31.5433C47.6302 30.4433 47.2919 29.2609 46.4474 28.496L46.0116 28.1012V21.6783C46.0116 18.1458 45.9793 15.2582 45.9397 15.2616C45.9001 15.2649 45.2532 15.4955 44.502 15.7741ZM10.4708 21.1976C10.5009 24.6245 10.5046 24.681 10.7284 25.1488C11.326 26.3977 12.9986 27.452 15.7356 28.3053C21.221 30.0153 28.6234 30.0162 34.1269 28.3074C36.8378 27.4656 38.5266 26.3952 39.1288 25.137C39.3456 24.6841 39.3511 24.5994 39.381 21.1976C39.4023 18.7742 39.3804 17.7211 39.3089 17.7211C39.2525 17.7211 36.2197 18.8184 32.5693 20.1597L25.9322 22.5982L24.9259 22.5971L23.9195 22.5961L17.2936 20.1586C13.6494 18.818 10.6166 17.7211 10.5541 17.7211C10.4678 17.7211 10.4477 18.5629 10.4708 21.1976Z" fill="#DE6E6E"/>
</svg>
