<svg width="44" height="43" viewBox="0 0 44 43" fill="none" xmlns="http://www.w3.org/2000/svg">
<path fill-rule="evenodd" clip-rule="evenodd" d="M34.5537 0.0537553C32.8915 0.422434 31.5965 1.5678 31.0537 3.14958C30.9004 3.59642 30.8608 3.89291 30.8608 4.59421C30.8608 5.29552 30.9004 5.592 31.0537 6.03884C31.5261 7.41515 32.5664 8.46252 33.9725 8.97743C34.6856 9.23854 36.1854 9.23854 36.8986 8.97743C38.3047 8.46252 39.345 7.41515 39.8173 6.03884C40.091 5.24165 40.091 3.94677 39.8173 3.14958C39.3435 1.76874 38.2822 0.703208 36.8986 0.21906C36.3383 0.0230811 35.0892 -0.0649917 34.5537 0.0537553ZM20.9326 5.17828C20.6689 5.33922 17.0859 9.4404 16.7806 9.93068C16.5583 10.2878 16.5732 10.8817 16.8137 11.2419C17.0876 11.6521 17.4794 11.8213 18.1558 11.8214L18.7227 11.8216V24.8896V37.9577H21.5361H24.3496V24.8896V11.8216H24.8989C25.6091 11.8216 26.0467 11.6093 26.2802 11.1514C26.4839 10.7517 26.4954 10.3899 26.3153 10.0413C26.2416 9.89866 25.2968 8.75086 24.2157 7.49053C22.7905 5.82891 22.1774 5.17357 21.9856 5.10668C21.594 4.97012 21.2337 4.99457 20.9326 5.17828ZM29.6463 10.0288C28.7386 11.0201 28.0473 12.2638 27.6923 13.5444C27.5122 14.1937 27.5049 14.3719 27.4769 18.7701C27.4484 23.2372 27.4511 23.3299 27.6215 23.6642C27.9117 24.2334 28.2379 24.3434 29.6373 24.3434H30.8164V31.1505V37.9577H35.4355H40.0547V31.1505V24.3434H41.2338C42.6332 24.3434 42.9594 24.2334 43.2496 23.6642C43.42 23.3299 43.4227 23.2372 43.3942 18.7701C43.3662 14.3719 43.3589 14.1937 43.1788 13.5444C42.8233 12.2621 42.1326 11.0202 41.2217 10.0254L40.7098 9.46637L40.2353 9.87303C39.2756 10.6954 38.5304 11.1105 37.393 11.4558C36.7491 11.6513 36.5011 11.6811 35.4775 11.6863C34.494 11.6911 34.1919 11.6607 33.6299 11.5004C32.6321 11.2157 31.7034 10.7303 30.8847 10.0656L30.1551 9.47317L29.6463 10.0288ZM13.2295 17.8198C12.5479 18.2327 12.5993 17.3854 12.5953 28.2722L12.5918 37.9577H14.3975H16.2031V27.789V17.6202L14.8804 17.6207C13.6384 17.6211 13.5375 17.6333 13.2295 17.8198ZM7.21848 24.4906C7.05773 24.5714 6.84038 24.766 6.73557 24.9231L6.54492 25.2086V31.5831V37.9577H8.30859H10.0723V31.1505V24.3434L8.7915 24.3435C7.73977 24.3436 7.4585 24.3699 7.21848 24.4906ZM1.06587 31.2398C0.873961 31.3412 0.686172 31.5345 0.582955 31.7369C0.423301 32.0502 0.414062 32.2287 0.414062 35.0129V37.9577H2.21973H4.02539V34.5121V31.0665L2.70264 31.0702C1.55222 31.0734 1.33898 31.0956 1.06587 31.2398ZM0.414062 41.2385C0.414062 42.1747 0.582367 42.5748 1.08375 42.8308C1.41322 42.999 1.53525 43 21.9141 43C42.2929 43 42.4149 42.999 42.7444 42.8308C43.117 42.6406 43.4141 42.1564 43.4141 41.7394C43.4141 41.3224 43.117 40.8383 42.7444 40.648C42.4148 40.4798 42.294 40.4788 21.4135 40.4788H0.414062V41.2385Z" fill="#E2BA55"/>
</svg>
